<svg xmlns="http://www.w3.org/2000/svg" width="28" height="28" viewBox="0 0 28 28">
    <defs>
        <style>
            .cls-1{fill:none}.cls-2{fill:#d4e1f4}.cls-3{fill:#1ae5be}.cls-4{fill:#333a60}.cls-5{fill:#ff6c00}
        </style>
    </defs>
    <g id="Automobile" transform="translate(-102 -285)">
        <path id="Rectangle_6234" d="M0 0h28v28H0z" class="cls-1" transform="translate(102 285)"/>
        <g id="Group_13184" transform="translate(102 285)">
            <g id="daily-needs-icn">
                <path id="Rectangle_91" d="M0 0h28v28H0z" class="cls-1"/>
            </g>
            <path id="Rectangle_27" d="M0 0h28v28H0z" class="cls-1"/>
        </g>
        <g id="automobile-2" transform="translate(102 285)">
            <path id="Rectangle_53" d="M0 0h28v28H0z" class="cls-1"/>
            <g id="Group_13586" transform="translate(2 5.733)">
                <path id="Path_4955" d="M422.817 343.25a2.274 2.274 0 0 1 2.029-1.665h11.647a1.725 1.725 0 0 1 .779.189 2.1 2.1 0 0 0-1.775-1.185H423.85a2.273 2.273 0 0 0-2.029 1.665 34.82 34.82 0 0 0-.728 3.476c.263.026.657.065 1.153.108a24.731 24.731 0 0 1 .571-2.588z" class="cls-2" transform="translate(-417.661 -339.892)"/>
                <path id="Path_4956" d="M414.69 364.373V361.2a2.43 2.43 0 0 1 .7-1.431c.239-.243 1.089-.9 1.509-1.217.742.078 4.785.483 8.8.483 3.986 0 8.156-.4 8.966-.482.227.168.582.433.9.685a3 3 0 0 0-.37-.463 18.748 18.748 0 0 0-1.527-1.218c-.81.082-4.98.482-8.966.482-4.011 0-8.054-.405-8.8-.483-.42.318-1.27.974-1.509 1.217a2.428 2.428 0 0 0-.7 1.431v3.172a1.711 1.711 0 0 0 1.106 1.6 1.7 1.7 0 0 1-.109-.603z" class="cls-2" transform="translate(-412.798 -351.045)"/>
                <path id="Path_4957" d="M466.557 380.453h-.7v1.947a.883.883 0 0 0 .867.886h1.723a.865.865 0 0 0 .845-.886v-2h-.7" class="cls-3" transform="translate(-447.088 -366.063)"/>
                <path id="Path_4960" d="M442.676 373.631a.349.349 0 0 0-.349-.348h-6.756a.349.349 0 0 0 0 .7h6.756a.349.349 0 0 0 .349-.352z" class="cls-4" transform="translate(-426.949 -361.383)"/>
                <path id="Path_4961" d="M416.309 380.4v2a.865.865 0 0 0 .846.886h1.608a.9.9 0 0 0 .882-.886v-1.952" class="cls-4" transform="translate(-414.516 -366.063)"/>
                <path id="Path_4962" d="M465.86 380.453v1.947a.883.883 0 0 0 .867.886h1.723a.865.865 0 0 0 .845-.886v-2" class="cls-4" transform="translate(-447.088 -366.063)"/>
                <path id="Path_4964" d="M440.31 363.693h-11.146a.343.343 0 0 0-.331.452l.33 1.008a1.876 1.876 0 0 0 1.7 1.229h7.728a1.9 1.9 0 0 0 1.708-1.222l.345-1.014a.341.341 0 0 0-.047-.311.345.345 0 0 0-.287-.142z" class="cls-4" transform="translate(-422.737 -355.079)"/>
                <path id="Path_4965" d="M469.98 364.366a.348.348 0 0 0 .011-.7h-.007c-.076 0-1.873-.011-2.3 0a2.676 2.676 0 0 0-2.279 1.079 2.493 2.493 0 0 0-.348 1.268.346.346 0 0 0 .346.346h4.61a.349.349 0 0 0 0-.7" class="cls-5" transform="translate(-446.559 -355.06)"/>
                <path id="Path_4966" d="M412.009 365.666a.349.349 0 0 0 0 .7h4.608a.346.346 0 0 0 .349-.344 2.5 2.5 0 0 0-.348-1.269 2.676 2.676 0 0 0-2.279-1.079c-.429-.011-2.2 0-2.279 0a.349.349 0 1 0 0 .7" class="cls-5" transform="translate(-411.461 -355.06)"/>
                <path id="Path_4968" d="M433.485 342.986h-.149a1.587 1.587 0 0 0-1.138.479 21.252 21.252 0 0 0-.625-2.777 2.955 2.955 0 0 0-2.659-2.134h-11.647a2.964 2.964 0 0 0-2.689 2.138 26.166 26.166 0 0 0-.613 2.775 1.586 1.586 0 0 0-1.144-.482h-.149a1.6 1.6 0 0 0-1.593 1.593.349.349 0 0 0 .348.349h1.795c-.393.306-.853.674-1.042.866a3.1 3.1 0 0 0-.9 1.92v3.172a2.41 2.41 0 0 0 2.408 2.407h18.782a2.41 2.41 0 0 0 2.408-2.407v-3.172a2.923 2.923 0 0 0-.9-1.914 12.148 12.148 0 0 0-1.052-.872h1.807a.349.349 0 0 0 .349-.349 1.6 1.6 0 0 0-1.597-1.592zm-18.247-2.069a2.273 2.273 0 0 1 2.029-1.665h11.647a2.282 2.282 0 0 1 2.006 1.68 28.349 28.349 0 0 1 .729 3.46c-1.177.115-5 .458-8.667.458-3.647 0-7.322-.341-8.472-.457a34.814 34.814 0 0 1 .728-3.476zm-2.567 2.766h.149a.9.9 0 0 1 .826.548h-1.8a.9.9 0 0 1 .825-.548zm20.8 2.6a2.261 2.261 0 0 1 .707 1.428v3.172a1.712 1.712 0 0 1-1.711 1.71h-18.781a1.712 1.712 0 0 1-1.711-1.71v-3.172a2.429 2.429 0 0 1 .7-1.431c.239-.243 1.089-.9 1.509-1.217.742.078 4.785.483 8.8.483 3.986 0 8.156-.4 8.966-.482a18.764 18.764 0 0 1 1.524 1.221zm-.965-2.055a.9.9 0 0 1 .826-.548h.149a.9.9 0 0 1 .825.548z" class="cls-4" transform="translate(-411.078 -338.554)"/>
            </g>
        </g>
    </g>
</svg>
