<svg xmlns="http://www.w3.org/2000/svg" width="94" height="94" viewBox="0 0 94 94">
    <g data-name="Rectangle 70180" style="fill:#fff;stroke:none;stroke-width:.5px">
        <rect width="94" height="94" rx="14" style="stroke:none"/>
        <rect x=".25" y=".25" width="93.5" height="93.5" rx="13.75" style="fill:none"/>
    </g>
    <g data-name="bus">
        <g data-name="Fill 1" transform="translate(29.777 23.374)">
            <rect data-name="Rectangle 69925" width="34.918" height="39.026" rx="6" style="fill:#d88"/>
            <g data-name="Group 128685">
                <path data-name="Path 140425" d="M50.294 52.46v4.359a1.578 1.578 0 0 1-1.573 1.573h-3.148A1.578 1.578 0 0 1 44 56.819v-3.147h3.147a4.666 4.666 0 0 0 3.147-1.212z" transform="translate(-16.879 -15.018)" style="fill:#42362e"/>
                <path data-name="Path 140426" d="M12 52.46v4.359a1.578 1.578 0 0 0 1.573 1.573h3.147a1.578 1.578 0 0 0 1.573-1.573v-3.147h-3.146A4.666 4.666 0 0 1 12 52.46z" transform="translate(-10.055 -15.018)" style="fill:#42362e"/>
            </g>
        </g>
        <g data-name="Fill 2">
            <path data-name="Path 140427" d="M10 12h34.617v14.161a4.72 4.72 0 0 1-4.72 4.72H14.72a4.72 4.72 0 0 1-4.72-4.72z" transform="translate(20.148 16.984)" style="fill:#46afe2"/>
            <g data-name="Group 128686" transform="translate(37.02 51.951)">
                <ellipse data-name="Ellipse 2115" cx="2.054" cy="2.513" rx="2.054" ry="2.513" transform="translate(16.432)" style="fill:#ffe145"/>
                <ellipse data-name="Ellipse 2116" cx="2.054" cy="2.97" rx="2.054" ry="2.97" style="fill:#ffe145"/>
            </g>
        </g>
        <g data-name="Effect Line" transform="translate(32.508 24.4)">
            <path data-name="Path 140428" d="M13.787 22.081a.787.787 0 0 1-.787-.787v-5.507a.787.787 0 0 1 .787-.787h4.72a.787.787 0 1 1 0 1.573h-3.934v4.72a.787.787 0 0 1-.786.788z" transform="translate(-13 -8.056)" style="fill:#90cfee"/>
            <path data-name="Path 140429" d="M13.787 48.147A.787.787 0 0 1 13 47.36v-1.573a.787.787 0 0 1 1.573 0v1.573a.787.787 0 0 1-.786.787z" transform="translate(-13 -14.454)" style="fill:#ee7d7e"/>
            <path data-name="Path 140430" d="M49.787 47.294a.787.787 0 0 1-.787-.787v-4.72a.787.787 0 0 1 1.573 0v4.72a.787.787 0 0 1-.786.787z" transform="translate(-20.677 -13.601)" style="fill:#b76869"/>
            <path data-name="Path 140431" d="M21.867 8.573h-7.08a.787.787 0 1 1 0-1.573h7.081a.787.787 0 1 1 0 1.573z" transform="translate(-13.213 -6.35)" style="fill:#ee7d7e"/>
            <path data-name="Path 140432" d="M46.934 31.081h-3.147a.787.787 0 1 1 0-1.573h3.147a.788.788 0 0 0 .787-.787v-3.934a.787.787 0 1 1 1.573 0v3.933a2.363 2.363 0 0 1-2.36 2.361z" transform="translate(-19.398 -9.975)" style="fill:#3583aa"/>
            <circle data-name="Ellipse 2117" cx=".513" cy=".513" r=".513" transform="translate(11.646)" style="fill:#ee7d7e"/>
            <circle data-name="Ellipse 2118" cx=".513" cy=".513" r=".513" transform="translate(7.538 7.189)" style="fill:#90cfee"/>
            <circle data-name="Ellipse 2119" cx=".513" cy=".513" r=".513" transform="translate(.349 27.729)" style="fill:#ee7d7e"/>
        </g>
        <path data-name="Path 140433" d="M20.147 41a3.147 3.147 0 1 0 3.147 3.147A3.147 3.147 0 0 0 20.147 41zm0 4.72a1.573 1.573 0 1 1 1.573-1.573 1.573 1.573 0 0 1-1.573 1.573z" transform="translate(18.655 10.799)" style="fill:#333a60"/>
        <path data-name="Path 140434" d="M42.147 41a3.147 3.147 0 1 0 3.147 3.147A3.147 3.147 0 0 0 42.147 41zm0 4.72a1.573 1.573 0 1 1 1.573-1.573 1.573 1.573 0 0 1-1.573 1.573z" transform="translate(13.964 10.799)" style="fill:#333a60"/>
        <path data-name="Path 140435" d="M44.7 9.294h-.787v-.787A5.513 5.513 0 0 0 38.4 3H13.228A5.513 5.513 0 0 0 7.72 8.507v.787h-.786A3.938 3.938 0 0 0 3 13.228v4.72a.787.787 0 0 0 .23.556l1.57 1.574a.787.787 0 1 0 1.113-1.113l-1.34-1.343v-4.394a2.363 2.363 0 0 1 2.36-2.36h.787V38.4a5.486 5.486 0 0 0 1.573 3.847v4.02a2.363 2.363 0 0 0 2.36 2.36H14.8a2.363 2.363 0 0 0 2.36-2.36v-2.36h17.31v2.36a2.363 2.363 0 0 0 2.36 2.36h3.147a2.363 2.363 0 0 0 2.36-2.36v-4.02a5.486 5.486 0 0 0 1.574-3.847V10.867h.789a2.363 2.363 0 0 1 2.36 2.36v4.395l-1.343 1.343a.787.787 0 1 0 1.113 1.113L48.4 18.5a.787.787 0 0 0 .231-.556v-4.72a3.938 3.938 0 0 0-3.931-3.93zm-2.36 14.948a3.938 3.938 0 0 1-3.94 3.934H13.228a3.938 3.938 0 0 1-3.934-3.934V10.867h33.043zM13.228 4.573H38.4a3.938 3.938 0 0 1 3.934 3.934v.787H9.294v-.787a3.938 3.938 0 0 1 3.934-3.934zm2.36 41.7a.788.788 0 0 1-.787.787h-3.147a.788.788 0 0 1-.787-.787v-2.9a5.465 5.465 0 0 0 2.36.539h2.36zm24.389.787H36.83a.788.788 0 0 1-.787-.787v-2.36H38.4a5.465 5.465 0 0 0 2.36-.539v2.9a.788.788 0 0 1-.787.787zm2.36-8.654a3.938 3.938 0 0 1-3.937 3.931H13.228A3.938 3.938 0 0 1 9.294 38.4V28.089a5.488 5.488 0 0 0 3.934 1.66H38.4a5.489 5.489 0 0 0 3.935-1.661z" transform="translate(21.641 18.903)" style="fill:#333a60"/>
        <path data-name="Path 140436" d="M34.081 44h-6.294a.787.787 0 1 0 0 1.573h6.294a.787.787 0 0 0 0-1.573z" transform="translate(16.523 10.159)" style="fill:#333a60"/>
    </g>
</svg>
