<svg xmlns="http://www.w3.org/2000/svg" width="94" height="94" viewBox="0 0 94 94">
    <defs>
        <clipPath id="j4kwxd427a">
            <path data-name="Rectangle 70030" style="fill:none" d="M0 0h47.076v52.333H0z"/>
        </clipPath>
    </defs>
    <g data-name="Car Hire">
        <g data-name="Rectangle 70183" style="fill:#fff;stroke:none;stroke-width:.5px">
            <rect width="94" height="94" rx="14" style="stroke:none"/>
            <rect x=".25" y=".25" width="93.5" height="93.5" rx="13.75" style="fill:none"/>
        </g>
        <g data-name="Group 129231">
            <g data-name="Group 129230" transform="translate(19.99 19.514)" style="clip-path:url(#j4kwxd427a)">
                <path data-name="Path 142256" d="M9.391 247.618s-3.868.779-3.75 3.976l.414 8.341 1.46.591a1.8 1.8 0 0 0 .594 2.247s2.923 2.782 5.752 1.3c0 0 2.01.118 2.188-3.134l18.185-.414s-1.864 4.553 2.867 4.258c0 0 4.494-.887 4.671-2.424l.292-1.3.605-.473 1.054-9.934s-2.365-2.838-5.44-3.252c0 0-14.734-2.755-28.891.219" transform="translate(2.42 -213.172)" style="fill:#5f99d7"/>
                <path data-name="Rectangle 70027" transform="translate(12.851 37.952)" style="fill:#f1cc76" d="M0 0h5.026v2.779H0z"/>
                <path data-name="Rectangle 70028" transform="translate(36.613 37.952)" style="fill:#f1cc76" d="M0 0h5.026v2.779H0z"/>
                <path data-name="Rectangle 70029" transform="translate(22.134 43.274)" style="fill:#65efb0" d="M0 0h9.993v3.784H0z"/>
                <path data-name="Path 142257" d="M31.858 146.559s-6.95 1.574-7.821 14v1.253l5.219-.828s22.849-1.537 28.13.828c0 0-.9-12.181-6.738-15.02z" transform="translate(-13.508 -126.879)" style="fill:#dedede"/>
                <path data-name="Path 142258" d="M18.4 11.12s-2.515-5.6-9.1-3.322c0 0-5.911 2.779-3.039 9.79a7.393 7.393 0 0 0 8.073 3.076s3.076-1.809 3.483-2.94h3.613l3.03-2.759 1.555 1.221s.851-1.176 1.118-1.221a3.525 3.525 0 0 1 .719 0l.407.9.8.226 1.52-1.086 1.52 1.176 2.323-2.081-2.047-2.664z" transform="translate(-3.009 -6.278)" style="fill:#8f8f8b"/>
                <path data-name="Path 142259" d="M36.216 45.873a1.664 1.664 0 1 1-1.664-1.664 1.664 1.664 0 0 1 1.664 1.664" transform="translate(-26.745 -38.273)" style="fill:#f1cc76"/>
                <path data-name="Path 142260" d="M7.6 1.519a6.066 6.066 0 0 1 5.865 4.56h13.9l1.52 1.52-1.52 1.52L25.841 7.6l-1.52 1.52L22.8 7.6l-1.52 1.52-1.52-1.52-3.04 3.04h-3.883A6.07 6.07 0 1 1 7.6 1.519M7.6 0a7.6 7.6 0 1 0 6.049 12.16h3.072a1.519 1.519 0 0 0 1.075-.445l1.965-1.965.445.445a1.52 1.52 0 0 0 2.15 0l.445-.445.445.445a1.519 1.519 0 0 0 2.149 0l.445-.445.445.445a1.52 1.52 0 0 0 2.15 0l1.52-1.52a1.52 1.52 0 0 0 0-2.15L28.436 5a1.522 1.522 0 0 0-1.075-.445H14.544A7.583 7.583 0 0 0 7.6 0z" transform="translate(1.726 .001)" style="fill:#333a60"/>
                <path data-name="Path 142261" d="M25.68 35.481A1.52 1.52 0 1 1 24.16 37a1.52 1.52 0 0 1 1.52-1.52m0-1.52A3.04 3.04 0 1 0 28.72 37a3.043 3.043 0 0 0-3.04-3.04" transform="translate(-17.874 -29.401)" style="fill:#333a60"/>
                <path data-name="Path 142262" d="M35.77 273.316v1.984h-2.981a.994.994 0 0 1 0-1.987h2.981m0-1.987h-2.981a2.981 2.981 0 1 0 0 5.962h2.981a1.988 1.988 0 0 0 1.987-1.987v-1.988a1.987 1.987 0 0 0-1.987-1.987z" transform="translate(-18.504 -234.894)" style="fill:#333a60"/>
                <path data-name="Path 142263" d="M212.374 273.316a.994.994 0 0 1 0 1.987h-2.981v-1.987h2.981m0-1.988h-2.981a1.988 1.988 0 0 0-1.987 1.988v1.984a1.988 1.988 0 0 0 1.987 1.987h2.981a2.981 2.981 0 0 0 0-5.962z" transform="translate(-172.254 -234.894)" style="fill:#333a60"/>
                <path data-name="Path 142264" d="M39.96 149.061v-.993a1.988 1.988 0 0 0-1.987-1.987h-1.864c-1.49-3.974-4.1-7.949-8.57-7.949H12.634c-4.471 0-7.08 3.974-8.57 7.949H2.2a1.988 1.988 0 0 0-1.988 1.987v.993a2.976 2.976 0 0 0 2.288 2.892 30.385 30.385 0 0 0-.3 2.076v.091A3.938 3.938 0 0 0 .214 158v7.949a1.988 1.988 0 0 0 1.986 1.992 3.974 3.974 0 0 0 3.974 3.974h1.989a3.975 3.975 0 0 0 3.974-3.974h15.9a3.975 3.975 0 0 0 3.974 3.974H34a3.975 3.975 0 0 0 3.974-3.974 1.988 1.988 0 0 0 1.987-1.987V158a3.938 3.938 0 0 0-1.987-3.883v-.091s-.083-.829-.3-2.076a2.976 2.976 0 0 0 2.29-2.892zm-27.325-8.943H27.54c5.864 0 7.847 10.008 8.324 13.147-2.872-.813-7.689-1.223-15.777-1.223s-12.907.411-15.779 1.224c.473-3.137 2.443-13.148 8.327-13.148zM2.2 149.061v-.993h1.213a32.1 32.1 0 0 0-.508 1.928.983.983 0 0 1-.705-.935zm21.86 16.891h-7.947v-1.988h7.949zm13.91 0h-1.985v1.987A1.99 1.99 0 0 1 34 169.927h-1.99a1.99 1.99 0 0 1-1.987-1.988v-1.987h-3.976v-2.981a.993.993 0 0 0-.993-.993h-9.937a.993.993 0 0 0-.994.993v2.981h-3.974v1.987a1.99 1.99 0 0 1-1.987 1.988H6.176a1.99 1.99 0 0 1-1.987-1.988v-1.987H2.2V158c0-1.863 0-3.974 17.886-3.974S37.972 156.14 37.972 158zm0-16.891a.983.983 0 0 1-.7.935 34.301 34.301 0 0 0-.508-1.928h1.21z" transform="translate(7.116 -119.583)" style="fill:#333a60"/>
            </g>
        </g>
    </g>
</svg>
