<svg xmlns="http://www.w3.org/2000/svg" width="50" height="50" viewBox="0 0 50 50">
  <defs>
    <style>
      .cls-1 {
        fill: #fff;
      }

      .cls-2, .cls-3 {
        fill: #d09080;
        stroke: #d09080;
      }

      .cls-3 {
        stroke-width: 0.8px;
      }

      .cls-4 {
        fill: #8d9ca8;
        stroke: #8d9ca8;
      }

      .cls-5 {
        fill: #ffcbbe;
      }

      .cls-6 {
        fill: #ffe07d;
        stroke: #ffe07d;
      }

      .cls-7 {
        fill: #9dc6fb;
        stroke: #9dc6fb;
      }

      .cls-8 {
        fill: #ecf4ff;
      }

      .cls-9 {
        fill: #c7ebfd;
      }

      .cls-10 {
        fill: #343b6f;
      }

      .cls-11 {
        fill: #685e68;
      }

      .cls-11, .cls-12 {
        fill-rule: evenodd;
      }

      .cls-12 {
        fill: #837683;
      }
    </style>
  </defs>
  <g id="Consultant_img_icon" transform="translate(-286 -239)">
    <g id="Group_146006" data-name="Group 146006" transform="translate(3141 15891)">
      <path id="Rectangle_27" data-name="Rectangle 27" class="cls-1" d="M0,0H50V50H0Z" transform="translate(-2855 -15652)"/>
    </g>
    <g id="discussion" transform="translate(265.655 243.847)">
      <path id="Path_268219" data-name="Path 268219" class="cls-2" d="M230.28,487.926v.338H234.4v-.338a.338.338,0,0,0-.339-.336H230.62A.338.338,0,0,0,230.28,487.926Z" transform="translate(-186.8 -448.535)"/>
      <path id="Path_268220" data-name="Path 268220" class="cls-3" d="M154.79,306.49h16.232v2.167H154.79Z" transform="translate(-117.363 -281.957)"/>
      <path id="Path_268218" data-name="Path 268218" class="cls-4" d="M340.66,350.613v9.578a1.086,1.086,0,0,0,2.171,0v-7.853a.641.641,0,0,1,.641-.642h6.408a1.085,1.085,0,0,0,1.086-1.083V349.53h-9.221A1.085,1.085,0,0,0,340.66,350.613Z" transform="translate(-288.329 -321.546)"/>
      <ellipse id="Ellipse_11130" data-name="Ellipse 11130" class="cls-5" cx="3.415" cy="3.41" rx="3.415" ry="3.41" transform="translate(55.466 8.278)"/>
      <path id="Path_268222" data-name="Path 268222" class="cls-6" d="M282.366,203.705h5.874a.971.971,0,0,0,.73-.3l3.93-3.925a.641.641,0,1,1,.906.908L292.29,201.9v5.255h4.288v-9.384a1.635,1.635,0,0,0-1.634-1.632,3,3,0,0,0-2.248,1.182l-4.532,4.528a.64.64,0,0,1-.453.188h-5.346a.834.834,0,1,0,0,1.668Z" transform="translate(-233.941 -180.456)"/>
      <path id="Path_268224" data-name="Path 268224" class="cls-4" d="M43.876,351.7h6.408a.641.641,0,0,1,.641.642v7.853a1.086,1.086,0,0,0,2.171,0v-9.578a1.086,1.086,0,0,0-1.086-1.083H42.79v1.083A1.086,1.086,0,0,0,43.876,351.7Z" transform="translate(-14.344 -321.546)"/>
      <path id="Path_268223" data-name="Path 268223" class="cls-7" d="M47.364,202.273l-1.614-1.612a.683.683,0,0,1,.965-.966l4.182,4.177a1.034,1.034,0,0,0,.779.323h6.253a.888.888,0,1,0,0-1.775H52.237a.682.682,0,0,1-.482-.2l-4.824-4.82a3.193,3.193,0,0,0-2.392-1.258,1.74,1.74,0,0,0-1.74,1.737v9.99h4.565v-5.594Z" transform="translate(-14.839 -180.811)"/>
      <path id="Path_268221" data-name="Path 268221" class="cls-5" d="M55.085,115.2a3.409,3.409,0,1,0-3.415-3.409A3.417,3.417,0,0,0,55.085,115.2Z" transform="translate(-22.881 -100.101)"/>
      <path id="Path_268215" data-name="Path 268215" class="cls-8" d="M173.23,44.49h-7.28a.49.49,0,0,0-.49.488v5.793a.49.49,0,0,0,.49.488h1.062a.641.641,0,0,1,.641.641v.892L169.39,51.4a.642.642,0,0,1,.4-.141h3.439a.5.5,0,0,0,.49-.488V44.978A.492.492,0,0,0,173.23,44.49Z" transform="translate(-127.178 -40.966)"/>
      <path id="Path_268216" data-name="Path 268216" class="cls-9" d="M246.812,18.773v4h.646a.642.642,0,0,1,.4.141L249.6,24.3v-.892a.641.641,0,0,1,.641-.641H251.3a.487.487,0,0,0,.488-.486v-5.8A.494.494,0,0,0,251.3,16H244.02a.5.5,0,0,0-.49.488V17h1.509A1.774,1.774,0,0,1,246.812,18.773Z" transform="translate(-198.988 -14.76)"/>
      <path id="Subtraction_10" data-name="Subtraction 10" class="cls-10" d="M26.159,40.669a2.183,2.183,0,0,1-2.187-2.175V28.912a2.135,2.135,0,0,1,.244-.99l.149-.284H18.708V37.811h1.278a1.432,1.432,0,0,1,1.436,1.426v.981a.451.451,0,0,1-.452.451H15.542a.452.452,0,0,1-.452-.451v-.981a1.432,1.432,0,0,1,1.436-1.426H17.8V27.638H12.143l.149.284a2.168,2.168,0,0,1,.244.995v9.577a2.185,2.185,0,0,1-4.369,0v-7.4H2.182A2.181,2.181,0,0,1,0,28.917V17.165a2.7,2.7,0,0,1,1.735-2.531l.258-.1L1.8,14.323A4.127,4.127,0,0,1,4.866,7.4,4.129,4.129,0,0,1,5.8,15.561l-.343.079,4.722,4.7h5.179a1.933,1.933,0,0,1,1.934,1.927,1.907,1.907,0,0,1-.155.758l-.119.267h2.47l-.12-.267a1.913,1.913,0,0,1-.154-.758,1.933,1.933,0,0,1,1.934-1.927h5.179l4.722-4.7-.343-.079a4.134,4.134,0,1,1,5.085-4.026A4.12,4.12,0,0,1,34.7,14.323l-.189.208.259.1a2.7,2.7,0,0,1,1.734,2.531V28.912a2.179,2.179,0,0,1-2.182,2.173H28.341v7.409A2.181,2.181,0,0,1,26.159,40.669Zm-9.632-1.957a.529.529,0,0,0-.532.525v.53h4.523v-.53a.529.529,0,0,0-.532-.525Zm9.632-11.074a1.283,1.283,0,0,0-1.282,1.279v9.577a1.282,1.282,0,0,0,2.565,0V30.64a.452.452,0,0,1,.452-.451h6.432a1.273,1.273,0,0,0,1.267-1.08h.015V27.638ZM.9,27.638v1.279A1.28,1.28,0,0,0,2.187,30.19H8.618a.452.452,0,0,1,.452.451v7.853a1.282,1.282,0,0,0,2.565,0V28.917a1.283,1.283,0,0,0-1.283-1.279Zm31.273-8.76a.452.452,0,0,1,.318.769l-1.58,1.569v5.527h4.692V17.165a1.834,1.834,0,0,0-1.834-1.828A3.2,3.2,0,0,0,31.4,16.558l-.019.017-4.548,4.533a.447.447,0,0,1-.318.129H21.149a1.052,1.052,0,0,0-.731.3,1.017,1.017,0,0,0-.3.728,1.028,1.028,0,0,0,1.029,1.025h5.895a1.173,1.173,0,0,0,.87-.357l3.947-3.927A.453.453,0,0,1,32.178,18.878Zm-2.162,3.234h0l-1.461,1.456a2.1,2.1,0,0,1-.92.539l-.139.04v2.6h2.52V22.112Zm-20.1,2.074v2.557H26.6V24.186ZM6.5,22.112h0v4.631h2.52v-2.6l-.139-.04a2.058,2.058,0,0,1-.919-.544ZM2.739,15.337A1.834,1.834,0,0,0,.9,17.165v9.578H5.592V21.216L4.016,19.646a.447.447,0,0,1,0-.639.454.454,0,0,1,.636,0l3.941,3.922a1.178,1.178,0,0,0,.87.362h5.895a1.025,1.025,0,1,0,0-2.05H10a.457.457,0,0,1-.318-.134L5.13,16.575l-.017-.016A3.2,3.2,0,0,0,2.739,15.337Zm28.9-7.032a3.232,3.232,0,1,0,3.25,3.229A3.24,3.24,0,0,0,31.641,8.305Zm-26.775,0a3.232,3.232,0,1,0,3.255,3.229A3.241,3.241,0,0,0,4.866,8.305Zm7.663,5.156a.456.456,0,0,1-.456-.446V11.232h-.612a1.592,1.592,0,0,1-1.59-1.579V3.863a1.587,1.587,0,0,1,1.59-1.58h4.7V1.575A1.582,1.582,0,0,1,17.744,0H25.05a1.583,1.583,0,0,1,1.586,1.575v5.8A1.583,1.583,0,0,1,25.05,8.949h-.616v1.778a.449.449,0,0,1-.451.451.435.435,0,0,1-.28-.1l-2.669-2.13h-.681v.7a1.584,1.584,0,0,1-1.586,1.579h-3.3l-2.664,2.134A.465.465,0,0,1,12.529,13.461ZM10.776,3.67V9.653a.685.685,0,0,0,.686.683h1.064a.452.452,0,0,1,.452.451v1.292l2.058-1.643a.444.444,0,0,1,.278-.1h3.454a.694.694,0,0,0,.686-.683V3.863a.685.685,0,0,0-.686-.684H11.462a.681.681,0,0,0-.656.491ZM21.194,8.052a.452.452,0,0,1,.283.1L23.534,9.79V8.5a.451.451,0,0,1,.452-.447h1.068a.68.68,0,0,0,.681-.679v-5.8A.689.689,0,0,0,25.055.9H17.744a.691.691,0,0,0-.686.679v.708h1.71a1.585,1.585,0,0,1,1.586,1.58V8.052Zm-3.683.188h-4.8a.448.448,0,0,1,0-.9h4.8a.448.448,0,1,1,0,.9Zm0-2.07H14.35a.449.449,0,1,1,0-.9H17.51a.449.449,0,1,1,0,.9Zm-4.791,0a.449.449,0,1,1,.448-.451A.451.451,0,0,1,12.719,6.171Z" transform="translate(27.292 0.152)"/>
      <path id="Path_268225" data-name="Path 268225" class="cls-11" d="M95.772,400.076H93.921v7.639a.251.251,0,0,0,.25.25h1.351a.251.251,0,0,0,.25-.25Z" transform="translate(-62.024 -368.236)"/>
      <path id="Path_268227" data-name="Path 268227" class="cls-11" d="M93.921,400.076h1.851v7.639a.251.251,0,0,1-.25.25h-1.35a.251.251,0,0,1-.25-.25Z" transform="translate(-36.282 -368.236)"/>
      <path id="Path_268226" data-name="Path 268226" class="cls-12" d="M27.172,258.006a.668.668,0,0,1,0,1.335H21.344a3.418,3.418,0,0,1-3.41-3.41V245.853a.668.668,0,0,1,1.335,0v10.079a2.083,2.083,0,0,0,2.075,2.075h5.828Z" transform="translate(7.411 -226.701)"/>
      <path id="Path_268228" data-name="Path 268228" class="cls-12" d="M18.6,258.006a.668.668,0,0,0,0,1.335h5.828a3.418,3.418,0,0,0,3.41-3.41V245.853a.668.668,0,1,0-1.335,0v10.079a2.083,2.083,0,0,1-2.075,2.075H18.6Z" transform="translate(38.203 -226.701)"/>
    </g>
  </g>
</svg>
