<svg xmlns="http://www.w3.org/2000/svg" width="94" height="94" viewBox="0 0 94 94">
    <g data-name="Rectangle 70171" style="fill:#fff;stroke:none;stroke-width:.5px">
        <rect width="94" height="94" rx="14" style="stroke:none"/>
        <rect x=".25" y=".25" width="93.5" height="93.5" rx="13.75" style="fill:none"/>
    </g>
    <g data-name="Packers &amp; Movers">
        <path data-name="Rectangle 91" d="M0 0h54.469v54.469H0z" style="fill:none" transform="translate(20.078 19.673)"/>
        <g data-name="idea (2)">
            <path data-name="Path 16028" d="M125.2 22.586a14.549 14.549 0 0 1-4.417 10.456 11.757 11.757 0 0 0-3.607 8.509h-13.129A11.59 11.59 0 0 0 100.5 33.1a14.59 14.59 0 1 1 24.7-10.516z" transform="translate(-63.298 16.299)" style="fill:#f1cc76"/>
            <path data-name="Path 16029" d="M235.957 8.1a14.589 14.589 0 0 1 8.355 24.934 11.757 11.757 0 0 0-3.607 8.509h3.647a11.756 11.756 0 0 1 3.607-8.509 14.59 14.59 0 0 0-12-24.934z" transform="translate(-190.472 16.306)" style="fill:#ebb15d"/>
            <path data-name="Path 16030" d="M197.154 376v5.106a2.189 2.189 0 0 1-2.188 2.188h-8.754a2.189 2.189 0 0 1-2.188-2.188V376z" transform="translate(-143.274 -318.149)" style="fill:#edebfd"/>
            <path data-name="Path 16031" d="M266.212 376v5.106a2.189 2.189 0 0 1-2.188 2.188h3.647a2.189 2.189 0 0 0 2.188-2.188V376z" transform="translate(-215.979 -318.149)" style="fill:#d2d2fc"/>
            <path data-name="Path 16032" d="M216.777 456a4.377 4.377 0 0 1-8.754 0z" transform="translate(-165.085 -390.854)" style="fill:#edebfd"/>
            <path data-name="Path 16033" d="M216.777 456h-8.754a4.355 4.355 0 0 0 .587 2.188h3.59a.53.53 0 0 1 .382.9 4.372 4.372 0 0 1-1.644 1.04 4.377 4.377 0 0 0 5.839-4.128z" transform="translate(-165.085 -390.854)" style="fill:#d2d2fc"/>
            <path data-name="Path 16034" d="M103.416 0a15.319 15.319 0 0 0-10.734 26.363A10.912 10.912 0 0 1 96 34.286v5.106a2.923 2.923 0 0 0 2.231 2.836 5.105 5.105 0 0 0 10.128 0 2.923 2.923 0 0 0 2.231-2.836v-5.106a10.954 10.954 0 0 1 3.387-7.985 15.2 15.2 0 0 0 4.638-10.979A15.359 15.359 0 0 0 103.416 0zm-.116 45.228a3.654 3.654 0 0 1-3.574-2.918h7.148a3.654 3.654 0 0 1-3.574 2.918zm4.377-4.377h-8.755a1.461 1.461 0 0 1-1.459-1.459v-.729h5.837a.729.729 0 0 0 0-1.459h-5.836v-2.189h11.672V37.2h-2.918a.729.729 0 0 0 0 1.459h2.918v.729a1.461 1.461 0 0 1-1.46 1.463zm5.287-15.6a12.605 12.605 0 0 0-3.811 8.3h-4.841l4.62-13.86h.933a.729.729 0 0 0 0-1.459H96.734a.729.729 0 0 0 0 1.459h.933l4.62 13.86h-4.84a12.377 12.377 0 0 0-3.753-8.245A13.86 13.86 0 0 1 103.3 1.459a13.9 13.9 0 0 1 13.86 13.862 13.752 13.752 0 0 1-4.196 9.934zm-9.664 6.728L99.205 19.7h8.189z" transform="translate(-55.985 23.564)" style="fill:#333a60"/>
        </g>
        <path data-name="Path 16136" d="m136.093 449.237-7-3.435a.764.764 0 0 0-.67 0l-7.008 3.425a.771.771 0 0 0-.44.688v6.555a6 6 0 0 0 .611 2.47 6.436 6.436 0 0 0 2.076 2.571l4.668 3.18a.758.758 0 0 0 .86 0l4.658-3.18a6.724 6.724 0 0 0 2.659-5.042v-6.539a.762.762 0 0 0-.414-.693zm-1.111 1.162v6.069a5.276 5.276 0 0 1-1.99 3.778l-4.233 2.888-4.235-2.888a4.885 4.885 0 0 1-1.549-1.952 4.538 4.538 0 0 1-.467-1.826v-6.077l6.238-3.052z" transform="translate(-67.8 -411.134)" style="fill:#333a60"/>
        <path data-name="Path 16137" d="M136.025 451.5v6.068a5.277 5.277 0 0 1-1.99 3.778l-4.233 2.888-4.235-2.888a4.885 4.885 0 0 1-1.549-1.952 4.539 4.539 0 0 1-.467-1.827v-6.077l6.238-3.052z" transform="translate(-68.843 -412.235)" style="fill:#ffc100"/>
        <path data-name="Path 16138" d="M134.3 457.769h-.59a2.065 2.065 0 0 0-.222-.54h.813a.511.511 0 0 0 0-1.023h-3.646a.511.511 0 0 0 0 1.023h1.045a1.083 1.083 0 0 1 .918.54h-1.959a.512.512 0 0 0 0 1.023h1.97a1.017 1.017 0 0 1-.927.539h-1.047a.517.517 0 0 0-.348.891l2.607 2.464a.5.5 0 0 0 .352.141h.014a.511.511 0 0 0 .359-.16.52.52 0 0 0-.021-.727l-1.687-1.6a2.072 2.072 0 0 0 1.783-1.549h.591a.512.512 0 1 0 0-1.023z" transform="translate(-71.518 -415.384)" style="fill:#333a60"/>
    </g>
</svg>
