<svg xmlns="http://www.w3.org/2000/svg" width="94" height="94" viewBox="0 0 94 94">
    <g data-name="Rectangle 70170" style="fill:#fff;stroke:none;stroke-width:.5px">
        <rect width="94" height="94" rx="14" style="stroke:none"/>
        <rect x=".25" y=".25" width="93.5" height="93.5" rx="13.75" style="fill:none"/>
    </g>
    <g data-name="Fill 1">
        <path data-name="Path 140394" d="M28.065 5.531a11.575 11.575 0 0 0-2.606 8.476l2.689 27.252a13.145 13.145 0 0 0 2.039 5.913 1.524 1.524 0 0 0 2.469 0 13.145 13.145 0 0 0 2.044-5.913l2.689-27.252a11.575 11.575 0 0 0-2.606-8.476 4.451 4.451 0 0 0-6.717 0z" transform="translate(16.033 19.729)" style="fill:#46afe2"/>
        <g data-name="Group 128680">
            <path data-name="Path 140395" d="M54.772 32.006v3.824L37.2 31.7l.717-10.066z" transform="translate(15.367 13.824)" style="fill:#c3e7f4"/>
            <path data-name="Path 140396" d="M52.476 24.748v3.97L47 25.87v-2.035a1.82 1.82 0 0 1 2.637-1.635l1.825.913a1.825 1.825 0 0 1 1.013 1.634z" transform="translate(10.496 13.447)" style="fill:#c3e7f4"/>
            <path data-name="Path 140397" d="M4 32.006v3.824l17.026-4.13-.694-10.07z" transform="translate(21.32 13.824)" style="fill:#c3e7f4"/>
            <path data-name="Path 140398" d="M11 24.748v3.97l5.476-2.847v-2.036a1.82 1.82 0 0 0-2.638-1.635l-1.825.913A1.825 1.825 0 0 0 11 24.748z" transform="translate(20.942 13.447)" style="fill:#c3e7f4"/>
            <path data-name="Path 140399" d="M42.3 52.635v3.8l-7.35-1.765a17.332 17.332 0 0 0 .584-3.285l.219-2.564z" transform="translate(14.137 11.104)" style="fill:#c3e7f4"/>
            <path data-name="Path 140400" d="M21 52.635v3.8l7.347-1.761a17.333 17.333 0 0 1-.584-3.285l-.219-2.564z" transform="translate(17.48 11.104)" style="fill:#c3e7f4"/>
        </g>
    </g>
    <g data-name="Effect Line" transform="translate(44.921 35.41)">
        <path data-name="Path 140401" d="M30.816 33.211a.913.913 0 0 1-.908-.836l-.538-6.388a.913.913 0 1 1 1.818-.153l.538 6.388a.911.911 0 0 1-.832.986.759.759 0 0 1-.078 0z" transform="translate(-29.032 -21.347)" style="fill:#90cfee"/>
        <circle data-name="Ellipse 2114" cx=".913" cy=".913" r=".913" style="fill:#90cfee"/>
    </g>
    <path data-name="Path 140402" d="M34.322 13.527a.912.912 0 0 0-.253-1.266 3.943 3.943 0 0 0-4.663 0 .913.913 0 1 0 1.012 1.519 2.135 2.135 0 0 1 2.638 0 .913.913 0 0 0 1.266-.253z" transform="translate(15.719 18.16)" style="fill:#333a60"/>
    <path data-name="Path 140403" d="m48.207 25.9-5.083-2.643v-2.944a2.348 2.348 0 0 0-1.3-2.111l-1.573-.787a2.36 2.36 0 0 0-3.416 2.111v.463L31.463 17.2l.278-3.281a13.759 13.759 0 0 0-2.385-9.043 4.28 4.28 0 0 0-7.081 0 13.759 13.759 0 0 0-2.385 9.043l.277 3.281-5.367 2.789v-.463a2.36 2.36 0 0 0-3.416-2.111l-1.572.785a2.348 2.348 0 0 0-1.3 2.111v2.948L3.424 25.9a.787.787 0 0 0-.424.7v3.3a.787.787 0 0 0 .787.787.735.735 0 0 0 .153-.016l17.08-3.392.959 11.341-5.214 3.04a.789.789 0 0 0-.39.68v3.27a.787.787 0 0 0 .97.765l5.625-1.348a15.229 15.229 0 0 0 1.091 2.561 1.945 1.945 0 0 0 1.663 1.044h.063a1.978 1.978 0 0 0 1.783-1.043 15.244 15.244 0 0 0 1.09-2.559l5.625 1.348a.787.787 0 0 0 .97-.765v-3.276a.789.789 0 0 0-.39-.68l-5.214-3.04.959-11.341 17.081 3.392a.735.735 0 0 0 .153.016.787.787 0 0 0 .787-.787V26.6a.787.787 0 0 0-.424-.7zm-9.8-6.378a.787.787 0 0 1 1.139-.7l1.573.787a.782.782 0 0 1 .435.7v2.13L38.4 20.807zm-28.323.787a.782.782 0 0 1 .435-.7l1.573-.787a.787.787 0 0 1 1.139.7v1.281l-3.147 1.636zm-5.511 8.63V27.08l15.738-8.18.575 6.8zm13.375 15.674v-1.824l4.178-2.435.082.967a15.673 15.673 0 0 0 .346 2.188zm8.242 2.219a.408.408 0 0 1-.4.226.39.39 0 0 1-.348-.229 14.04 14.04 0 0 1-1.664-5.635l-2.32-27.409a12.185 12.185 0 0 1 2.107-8.007 2.707 2.707 0 0 1 4.5 0 12.185 12.185 0 0 1 2.107 8.007L27.855 41.2a14.034 14.034 0 0 1-1.665 5.632zm7.493-4.043v1.824l-4.605-1.1a15.643 15.643 0 0 0 .345-2.182l.082-.972zm13.375-13.85L30.744 25.7l.575-6.8 15.739 8.18z" transform="translate(21.641 18.903)" style="fill:#333a60"/>
</svg>
