<svg xmlns="http://www.w3.org/2000/svg" width="94" height="94" viewBox="0 0 94 94">
    <g data-name="gas">
        <g data-name="Rectangle 70487" style="fill:#fff">
            <rect width="94" height="94" rx="14" style="stroke:none"/>
            <rect x=".25" y=".25" width="93.5" height="93.5" rx="13.75" style="fill:none"/>
        </g>
        <g data-name="GAS">
            <path data-name="Rectangle 70488" transform="translate(13 13)" style="fill:#fff" d="M0 0h68v68H0z"/>
            <g data-name="Data Card">
                <g data-name="Rectangle 70174" transform="translate(51.46 25.23)" style="stroke:#ddd;stroke-width:.5px;fill:#fff">
                    <rect width="8.629" height="8.629" rx="4.314" style="stroke:none"/>
                    <rect x=".25" y=".25" width="8.129" height="8.129" rx="4.064" style="fill:none"/>
                </g>
                <g data-name="Pest Control">
                    <path data-name="Rectangle 91" d="M0 0h4.477v4.477H0z" transform="translate(52.611 28.935)" style="fill:none"/>
                    <path data-name="Rectangle 91" d="M0 0h4.477v4.477H0z" transform="translate(52.611 28.935)" style="fill:none"/>
                    <path data-name="Path 142929" d="M122.094 29.176h4.879V38h-4.879zm0 0" transform="translate(-78.618 -2.998)" style="fill:#e6e6e6"/>
                    <path data-name="Path 142930" d="M122.094 29.176h1.682V38h-1.682zm0 0" transform="translate(-78.618 -2.998)" style="fill:#ccc"/>
                    <path data-name="Path 142931" d="M96.273 106.867h9.62v5.6h-9.62zm0 0" transform="translate(-55.168 -73.557)" style="fill:#e6e6e6"/>
                    <path data-name="Path 142932" d="M96.273 106.867h3.688v5.6h-3.688zm0 0" transform="translate(-55.168 -73.557)" style="fill:#ccc"/>
                    <path data-name="Path 142933" d="M33.5 151.8v19.383a5.59 5.59 0 0 1-5.591 5.591H13.2a5.59 5.59 0 0 1-5.591-5.591V151.8a8.14 8.14 0 0 1 8.14-8.14h9.62a8.139 8.139 0 0 1 8.131 8.14zm0 0" transform="translate(25.361 -106.976)" style="fill:#e23333"/>
                    <path data-name="Path 142934" d="M86.3 151.8v19.383a5.59 5.59 0 0 1-5.591 5.591h-9.38a5.59 5.59 0 0 1-5.591-5.591V151.8a8.14 8.14 0 0 1 8.14-8.14h4.283a8.139 8.139 0 0 1 8.139 8.14zm0 0" transform="translate(-27.436 -106.976)" style="fill:#f95858"/>
                    <path data-name="Path 142935" d="M216.4 12.5a4.9 4.9 0 1 1-4.9-4.9 4.9 4.9 0 0 1 4.9 4.9zm0 0" transform="translate(-155.361 16.596)" style="fill:#afccdb"/>
                    <path data-name="Path 142936" d="M214.334 13.581a3.959 3.959 0 1 1-3.87-4.792 4.9 4.9 0 0 1 3.87 4.792zm0 0" transform="translate(-155.361 15.518)" style="fill:#8db0c6"/>
                    <path data-name="Path 142937" d="M247.55 47.16a1.4 1.4 0 1 1-1.4-1.4 1.4 1.4 0 0 1 1.4 1.4zm0 0" transform="translate(-190.018 -18.061)" style="fill:#f95858"/>
                    <path data-name="Path 142938" d="M18.312 6.3a5.6 5.6 0 1 0 0-1.4h-1.527V2.678a.7.7 0 0 0-.7-.7h-4.877a.7.7 0 0 0-.7.7V8.2a.7.7 0 1 0 1.4 0V3.376h3.484v5.736h-3.486V7.663a.7.7 0 0 0-1.4 0v1.449H8.838a.7.7 0 0 0-.7.7v2.708A8.85 8.85 0 0 0 0 21.328v19.383A6.3 6.3 0 0 0 6.289 47h14.717a6.3 6.3 0 0 0 6.289-6.289v-4.769a.7.7 0 1 0-1.4 0v4.769a4.9 4.9 0 0 1-4.889 4.889H6.289a4.9 4.9 0 0 1-4.842-4.2h24.428a.7.7 0 1 0 0-1.4H1.4V22.026h24.475a.7.7 0 1 0 0-1.4H1.43a7.451 7.451 0 0 1 7.408-6.743h9.62a7.45 7.45 0 0 1 7.442 7.445v15.154a.7.7 0 1 0 1.4 0V21.328a8.85 8.85 0 0 0-8.14-8.81V9.81a.7.7 0 0 0-.7-.7h-1.675V6.3zm5.554-4.9a4.2 4.2 0 1 1-4.2 4.2 4.208 4.208 0 0 1 4.199-4.2zm-6.107 11.09H9.536v-1.982h8.223zm0 0" transform="translate(32.268 23.5)" style="fill:#333a60"/>
                    <path data-name="Path 142939" d="M230.231 32.679a2.1 2.1 0 1 0 .977-1l-.705-.691a.7.7 0 1 0-.977 1zm2.6.884a.7.7 0 1 1-.7-.7.7.7 0 0 1 .7.7zm0 0" transform="translate(-175.998 -4.464)" style="fill:#333a60"/>
                    <path data-name="Path 142940" d="M57.3 295.292a1.143 1.143 0 0 1 1.294 1.162c.011.274.233.425.627.425.376 0 .627-.1.627-.6 0-1.257-1.037-2.1-2.582-2.1a2.277 2.277 0 0 0-2.5 2.526v3.251a2.543 2.543 0 0 0 5.085 0v-1.463a.418.418 0 0 0-.426-.437H57.5a.52.52 0 0 0 0 1.019h1.1v.881c0 .92-.448 1.406-1.294 1.406s-1.283-.473-1.283-1.406V296.7c-.003-.935.428-1.408 1.277-1.408zm0 0" transform="translate(-17.47 -243.668)" style="fill:#333a60"/>
                    <path data-name="Path 142941" d="M119.971 293.441a.771.771 0 0 0-.782.427l-2.223 7.238a.338.338 0 0 0-.013.112c0 .326.45.526.772.526a.41.41 0 0 0 .447-.271l.451-1.561h2.707l.451 1.562a.406.406 0 0 0 .436.27c.362 0 .784-.23.784-.526a.355.355 0 0 0-.024-.111l-2.212-7.239a.8.8 0 0 0-.794-.427zm1.07 5.451H118.9l1.071-3.672zm0 0" transform="translate(-73.949 -243.004)" style="fill:#333a60"/>
                    <path data-name="Path 142942" d="M189.631 301.025a1.954 1.954 0 0 1-1.449-.609c-.169-.153-.3-.273-.461-.273-.29 0-.549.375-.549.672 0 .551.975 1.353 2.5 1.353a2.3 2.3 0 0 0 2.582-2.414c0-1.725-1.237-2.226-2.23-2.627-.751-.3-1.4-.566-1.4-1.249 0-.854.853-.981 1.361-.981a2.3 2.3 0 0 1 1.173.295.848.848 0 0 0 .369.129c.368 0 .526-.445.526-.672 0-.615-1.236-.839-2.068-.839a3.217 3.217 0 0 0-1.758.458 1.935 1.935 0 0 0-.857 1.722c0 1.466 1.085 1.923 2.043 2.327.817.345 1.587.67 1.587 1.56 0 .723-.51 1.148-1.369 1.148zm0 0" transform="translate(-137.722 -243.338)" style="fill:#333a60"/>
                </g>
            </g>
        </g>
    </g>
</svg>
