<svg xmlns="http://www.w3.org/2000/svg" width="94" height="94" viewBox="0 0 94 94">
    <g data-name="Rectangle 70182" style="fill:#fff;stroke:none;stroke-width:.5px">
        <rect width="94" height="94" rx="14" style="stroke:none"/>
        <rect x=".25" y=".25" width="93.5" height="93.5" rx="13.75" style="fill:none"/>
    </g>
    <g data-name="Group 128688">
        <path data-name="Path 140451" d="M114.735 7.5H92.118a3.607 3.607 0 0 0-3.607 3.607V21.7h29.831V11.107a3.607 3.607 0 0 0-3.607-3.607z" transform="translate(-57.426 17.809)" style="fill:#ececec"/>
        <path data-name="Path 140452" d="M90.105 128.881H64.738a4.774 4.774 0 0 0-4.774 4.774V159.1h34.915v-25.445a4.774 4.774 0 0 0-4.774-4.774z" transform="translate(-31.422 -92.763)" style="fill:#ff919e"/>
        <path data-name="Path 140453" d="M212.6 317.492h-4.46a2.23 2.23 0 0 0-2.23 2.23v11.2h8.921v-11.2a2.23 2.23 0 0 0-2.231-2.23z" transform="translate(-164.371 -264.577)" style="fill:#6a647f"/>
        <g data-name="Group 128687">
            <path data-name="Path 140454" d="M107.407 317.492h-1.942a1.62 1.62 0 0 0-1.62 1.62v3.9a1.62 1.62 0 0 0 1.62 1.62h1.942a1.62 1.62 0 0 0 1.62-1.62v-3.9a1.62 1.62 0 0 0-1.62-1.62z" transform="translate(-71.395 -264.577)" style="fill:#ffea98"/>
            <path data-name="Path 140455" d="M107.407 186.863h-1.942a1.62 1.62 0 0 0-1.62 1.62v3.9a1.62 1.62 0 0 0 1.62 1.62h1.942a1.62 1.62 0 0 0 1.62-1.62v-3.9a1.62 1.62 0 0 0-1.62-1.62z" transform="translate(-71.395 -145.581)" style="fill:#ffea98"/>
            <path data-name="Path 140456" d="M230.469 186.863h-1.942a1.62 1.62 0 0 0-1.62 1.62v3.9a1.62 1.62 0 0 0 1.62 1.62h1.942a1.62 1.62 0 0 0 1.62-1.62v-3.9a1.62 1.62 0 0 0-1.62-1.62z" transform="translate(-183.498 -145.581)" style="fill:#ffea98"/>
            <path data-name="Path 140457" d="M351.589 317.492h1.942a1.62 1.62 0 0 1 1.62 1.62v3.9a1.62 1.62 0 0 1-1.62 1.62h-1.942a1.62 1.62 0 0 1-1.62-1.62v-3.9a1.62 1.62 0 0 1 1.62-1.62z" transform="translate(-295.601 -264.577)" style="fill:#ffea98"/>
            <path data-name="Path 140458" d="M351.589 186.863h1.942a1.62 1.62 0 0 1 1.62 1.62v3.9a1.62 1.62 0 0 1-1.62 1.62h-1.942a1.62 1.62 0 0 1-1.62-1.62v-3.9a1.62 1.62 0 0 1 1.62-1.62z" transform="translate(-295.601 -145.581)" style="fill:#ffea98"/>
        </g>
        <path data-name="Path 140459" d="M69.927 438.053H35.643a2.724 2.724 0 0 0-2.724 2.724v1.68a1.514 1.514 0 0 0 1.514 1.514h36.7a1.514 1.514 0 0 0 1.514-1.514v-1.68a2.724 2.724 0 0 0-2.724-2.724z" transform="translate(-6.785 -374.402)" style="fill:#d7d6d9"/>
        <path data-name="Path 140460" d="M61.877 142.84a29.209 29.209 0 0 1 3.523-13.958h-.666a4.774 4.774 0 0 0-4.774 4.774V159.1h6.84a29.2 29.2 0 0 1-4.923-16.26z" transform="translate(-31.422 -92.764)" style="fill:#ff737d"/>
        <path data-name="Path 140461" d="M40.565 438.053h-4.922a2.724 2.724 0 0 0-2.724 2.724v1.68a1.514 1.514 0 0 0 1.514 1.514h10.22a29.405 29.405 0 0 1-4.088-5.917z" transform="translate(-6.785 -374.402)" style="fill:#c5c4c9"/>
        <path data-name="Path 140462" d="M105.575 189.5a14.9 14.9 0 0 1 .11-2.638h-.221a1.62 1.62 0 0 0-1.62 1.62v3.9a1.62 1.62 0 0 0 1.62 1.62h1.942a1.61 1.61 0 0 0 .977-.33 4.5 4.5 0 0 1-2.808-4.172z" transform="translate(-71.394 -145.58)" style="fill:#f9d888"/>
        <path data-name="Path 140463" d="M228.638 189.5a14.9 14.9 0 0 1 .11-2.638h-.221a1.62 1.62 0 0 0-1.62 1.62v3.9a1.62 1.62 0 0 0 1.62 1.62h1.942a1.61 1.61 0 0 0 .977-.33 4.5 4.5 0 0 1-2.808-4.172z" transform="translate(-183.498 -145.58)" style="fill:#f9d888"/>
        <path data-name="Path 140464" d="M351.7 189.5a14.9 14.9 0 0 1 .11-2.638h-.221a1.62 1.62 0 0 0-1.62 1.62v3.9a1.62 1.62 0 0 0 1.62 1.62h1.942a1.61 1.61 0 0 0 .977-.33 4.5 4.5 0 0 1-2.808-4.172z" transform="translate(-295.602 -145.58)" style="fill:#f9d888"/>
        <path data-name="Path 140465" d="M105.575 320.129a14.9 14.9 0 0 1 .11-2.638h-.221a1.62 1.62 0 0 0-1.62 1.62v3.9a1.62 1.62 0 0 0 1.62 1.62h1.942a1.61 1.61 0 0 0 .977-.33 4.5 4.5 0 0 1-2.807-4.168z" transform="translate(-71.394 -264.576)" style="fill:#f9d888"/>
        <path data-name="Path 140466" d="M351.7 320.129a14.9 14.9 0 0 1 .11-2.638h-.221a1.62 1.62 0 0 0-1.62 1.62v3.9a1.62 1.62 0 0 0 1.62 1.62h1.942a1.61 1.61 0 0 0 .977-.33 4.5 4.5 0 0 1-2.807-4.168z" transform="translate(-295.602 -264.576)" style="fill:#f9d888"/>
    </g>
    <g data-name="Group 128689">
        <path data-name="Path 140467" d="M100.575 309.992h-1.942a2.29 2.29 0 0 0-2.288 2.288v3.9a2.29 2.29 0 0 0 2.288 2.288h1.942a2.29 2.29 0 0 0 2.288-2.288v-3.9a2.29 2.29 0 0 0-2.288-2.288zm.952 6.184a.953.953 0 0 1-.952.952h-1.942a.953.953 0 0 1-.952-.952v-3.9a.953.953 0 0 1 .952-.952h1.942a.953.953 0 0 1 .952.952z" transform="translate(-64.563 -257.745)" style="fill:#333a60"/>
        <path data-name="Path 140468" d="M102.862 181.651a2.29 2.29 0 0 0-2.288-2.288h-1.941a2.29 2.29 0 0 0-2.288 2.288v3.9a2.29 2.29 0 0 0 2.288 2.288h1.942a2.29 2.29 0 0 0 2.288-2.288zm-1.336 3.9a.953.953 0 0 1-.952.952h-1.941a.953.953 0 0 1-.952-.952v-3.9a.953.953 0 0 1 .952-.952h1.942a.953.953 0 0 1 .952.952z" transform="translate(-64.563 -138.749)" style="fill:#333a60"/>
        <path data-name="Path 140469" d="M221.695 179.363a2.29 2.29 0 0 0-2.288 2.288v3.9a2.29 2.29 0 0 0 2.288 2.288h1.942a2.29 2.29 0 0 0 2.288-2.288v-3.9a2.29 2.29 0 0 0-2.288-2.288zm2.894 2.288v3.9a.953.953 0 0 1-.952.952h-1.942a.953.953 0 0 1-.952-.952v-3.9a.953.953 0 0 1 .952-.952h1.942a.953.953 0 0 1 .952.952z" transform="translate(-176.666 -138.749)" style="fill:#333a60"/>
        <path data-name="Path 140470" d="M346.7 309.992h-1.942a2.29 2.29 0 0 0-2.288 2.288v3.9a2.29 2.29 0 0 0 2.288 2.288h1.942a2.29 2.29 0 0 0 2.288-2.288v-3.9a2.29 2.29 0 0 0-2.288-2.288zm.952 6.184a.953.953 0 0 1-.952.952h-1.942a.953.953 0 0 1-.952-.952v-3.9a.953.953 0 0 1 .952-.952h1.942a.953.953 0 0 1 .952.952z" transform="translate(-288.77 -257.745)" style="fill:#333a60"/>
        <path data-name="Path 140471" d="M348.988 181.651a2.29 2.29 0 0 0-2.288-2.288h-1.942a2.29 2.29 0 0 0-2.288 2.288v3.9a2.29 2.29 0 0 0 2.288 2.288h1.942a2.29 2.29 0 0 0 2.288-2.288zm-1.336 3.9a.953.953 0 0 1-.952.952h-1.942a.953.953 0 0 1-.952-.952v-3.9a.953.953 0 0 1 .952-.952h1.942a.953.953 0 0 1 .952.952z" transform="translate(-288.771 -138.749)" style="fill:#333a60"/>
        <path data-name="Path 140472" d="M363.175 37.56h-1.1v-4.4a.668.668 0 0 0-1.336 0v5.06a.668.668 0 0 0 .555.658c.143.024 1.592.011 1.89.01a.668.668 0 1 0-.007-1.336z" transform="translate(-305.411 -4.965)" style="fill:#333a60"/>
        <path data-name="Path 140473" d="M120.521 32.5a.668.668 0 0 0-.668.668v1.777h-2.169v-1.777a.668.668 0 1 0-1.336 0v5.064a.668.668 0 1 0 1.336 0v-1.951h2.169v1.951a.668.668 0 1 0 1.336 0v-5.064a.668.668 0 0 0-.668-.668z" transform="translate(-82.785 -4.965)" style="fill:#333a60"/>
        <path data-name="Path 140474" d="M313.006 34.356a.668.668 0 1 0 0-1.336h-2.114a.668.668 0 0 0-.668.668v5.018a.668.668 0 0 0 .668.668h2.114a.668.668 0 1 0 0-1.336h-1.446v-1.173h1.29a.668.668 0 1 0 0-1.336h-1.29v-1.173z" transform="translate(-259.395 -5.438)" style="fill:#333a60"/>
        <path data-name="Path 140475" d="M256.224 32.5h-2.8a.668.668 0 0 0 0 1.336h.725v4.4a.668.668 0 1 0 1.336 0v-4.4h.736a.668.668 0 1 0 0-1.336z" transform="translate(-207.048 -4.965)" style="fill:#333a60"/>
        <path data-name="Path 140476" d="M182.548 32.5a3.2 3.2 0 1 0 3.2 3.2 3.2 3.2 0 0 0-3.2-3.2zm0 5.064a1.864 1.864 0 1 1 1.864-1.864 1.866 1.866 0 0 1-1.864 1.864z" transform="translate(-140.174 -4.965)" style="fill:#333a60"/>
        <path data-name="Path 140477" d="M81.9 0H59.282a4.279 4.279 0 0 0-4.275 4.275v7.375a5.441 5.441 0 0 0-2.542 4.6v20.914a.668.668 0 1 0 1.336 0V16.251a4.113 4.113 0 0 1 4.106-4.106h25.367a4.112 4.112 0 0 1 4.106 4.106V24a.668.668 0 1 0 1.336 0v-7.749a5.441 5.441 0 0 0-2.542-4.6V4.275A4.28 4.28 0 0 0 81.9 0zM57.907 10.809a5.538 5.538 0 0 0-1.564.23V4.275a2.942 2.942 0 0 1 2.939-2.939H81.9a2.942 2.942 0 0 1 2.939 2.939v6.765a5.53 5.53 0 0 0-1.564-.23z" transform="translate(-24.59 24.641)" style="fill:#333a60"/>
        <path data-name="Path 140478" d="M27.827 267.106a3.4 3.4 0 0 0-2.409 3.246v1.68a2.184 2.184 0 0 0 2.182 2.182h36.7a2.184 2.184 0 0 0 2.182-2.182v-1.68a3.4 3.4 0 0 0-2.409-3.246v-15.47a.668.668 0 1 0-1.336 0v15.324H51.081v-7.839a2.9 2.9 0 0 0-2.9-2.9h-4.46a2.9 2.9 0 0 0-2.9 2.9v7.839H29.162v-5.808a.668.668 0 1 0-1.336 0zm37.324 3.246v1.68a.847.847 0 0 1-.846.846H27.6a.847.847 0 0 1-.846-.846v-1.68a2.058 2.058 0 0 1 1.817-2.041 2.073 2.073 0 0 1 .239-.014h34.284a2.049 2.049 0 0 1 .239.014 2.058 2.058 0 0 1 1.817 2.041zm-22.991-11.23a1.564 1.564 0 0 1 1.562-1.562h4.462a1.564 1.564 0 0 1 1.562 1.562v7.839h-7.587z" transform="translate(.048 -203.978)" style="fill:#333a60"/>
    </g>
</svg>
