<svg xmlns="http://www.w3.org/2000/svg" width="94" height="94" viewBox="0 0 94 94">
    <g data-name="Rectangle 70487" style="fill:#fff">
        <rect width="94" height="94" rx="14" style="stroke:none"/>
        <rect x=".25" y=".25" width="93.5" height="93.5" rx="13.75" style="fill:none"/>
    </g>
    <g data-name="Group 130144">
        <path data-name="Rectangle 70488" transform="translate(13 13)" style="fill:#fff" d="M0 0h68v68H0z"/>
    </g>
    <g data-name="Group 130143">
        <g data-name="Group 130142">
            <path data-name="Path 142943" d="M240.6 147.484h2.527v25.361H240.6z" transform="translate(-194.86 -110.487)" style="fill:#99e6fc"/>
            <path data-name="Path 142944" d="M173.9 417.7v2.93a2.19 2.19 0 0 1-2.19 2.191 2.19 2.19 0 0 1-2.19-2.191V420a1.285 1.285 0 0 0-1.176-1.294 1.263 1.263 0 0 0-1.351 1.26v.791a4.718 4.718 0 0 0 9.435 0V417.7H173.9z" transform="translate(-128.164 -355.337)" style="fill:#4f66d0"/>
            <path data-name="Path 142945" d="M39.793 279.738a6.592 6.592 0 1 1-6.587-6.588 6.587 6.587 0 0 1 6.587 6.588z" transform="translate(-.965 -224.359)" style="fill:#fed402"/>
            <path data-name="Path 142946" d="M36.883 281.3a6.589 6.589 0 0 1-5.132 6.425 6.589 6.589 0 0 1 0-12.852 6.591 6.591 0 0 1 5.132 6.427z" transform="translate(-.965 -225.917)" style="fill:#fedf30"/>
            <path data-name="Path 142947" d="M354.671 284.692v7.2a2.1 2.1 0 0 1-2.1 2.1h-5.779a2.1 2.1 0 0 1-2.1-2.1v-7.2a2.1 2.1 0 0 1 2.1-2.1h5.779a2.1 2.1 0 0 1 2.1 2.1z" transform="translate(-289.182 -232.913)" style="fill:#99e6fc"/>
            <path data-name="Path 142948" d="M351.761 284.692v7.2a2.1 2.1 0 0 1-2.1 2.1h-2.87a2.1 2.1 0 0 1-2.1-2.1v-7.2a2.1 2.1 0 0 1 2.1-2.1h2.87a2.1 2.1 0 0 1 2.1 2.1z" transform="translate(-289.182 -232.913)" style="fill:#c8effe"/>
            <path data-name="Path 142949" d="M56.77 30.294a5.7 5.7 0 0 0-11.4-.016 5.7 5.7 0 0 0-11.4.016 5.7 5.7 0 0 0-9.118-4.56 5.69 5.69 0 0 0-2.279 4.543 5.7 5.7 0 0 0-11.4.016 22.8 22.8 0 1 1 45.592 0z" transform="translate(13.026 16.36)" style="fill:#4f66d0"/>
            <path data-name="Path 142950" d="M33.974 7.5c-11.391 5.543-11.4 18.19-11.4 22.78a5.7 5.7 0 0 0-11.4.016 22.8 22.8 0 0 1 22.8-22.8z" transform="translate(13.026 16.36)" style="fill:#8795de"/>
            <path data-name="Path 142951" d="M265.456 30.278a5.7 5.7 0 0 0-11.4.016V7.5c11.393 5.541 11.4 18.188 11.4 22.778z" transform="translate(-207.058 16.36)" style="fill:#8795de"/>
            <path data-name="Path 142952" d="M276.854 30.294a5.7 5.7 0 0 0-5.7-5.7c-4.263-17.1-17.1-17.1-17.1-17.1a22.8 22.8 0 0 1 22.8 22.8z" transform="translate(-207.058 16.36)" style="fill:#314dc9"/>
        </g>
        <path data-name="Path 142953" d="M41.7 5.022a.7.7 0 1 0-.871 1.106 21.977 21.977 0 0 1 7.982 12.856 6.395 6.395 0 0 0-9.637.651 31.153 31.153 0 0 0-1.352-7.393 19.849 19.849 0 0 0-7.69-10.637 22.03 22.03 0 0 1 8.092 2.757.7.7 0 1 0 .7-1.219A23.5 23.5 0 0 0 3.678 23.5a.7.7 0 0 0 1.408 0 5 5 0 0 1 9.99 0 .7.7 0 0 0 1.408 0 4.992 4.992 0 0 1 8.727-3.315v21.949a1.487 1.487 0 1 1-2.974 0v-.623c0-2.544-3.935-2.592-3.935-.033v.791a5.422 5.422 0 1 0 10.843 0V20.185a4.992 4.992 0 0 1 8.727 3.315.7.7 0 0 0 1.408 0 5 5 0 0 1 9.99 0 .7.7 0 1 0 1.408 0A23.38 23.38 0 0 0 41.7 5.022zm-15.08 18.9a.7.7 0 0 0 1.119 0V38.5h-1.121zM21.479 17.1a6.392 6.392 0 0 0-4.862 2.24 30.12 30.12 0 0 1 1.053-6 .7.7 0 1 0-1.352-.392 31.909 31.909 0 0 0-1.135 6.686 6.394 6.394 0 0 0-9.632-.657A22.149 22.149 0 0 1 24.228 1.6a19.312 19.312 0 0 0-6.723 8.113.7.7 0 1 0 1.282.581 17.908 17.908 0 0 1 7.686-8.431V19.5a6.391 6.391 0 0 0-4.994-2.4zm6.258 25.171a4.014 4.014 0 1 1-8.027 0v-.791a.56.56 0 0 1 1.119.033v.623a2.895 2.895 0 1 0 5.789 0v-2.228h1.119zm5.14-25.171a6.4 6.4 0 0 0-5 2.4V1.866c7.642 4.277 9.438 12.062 9.86 17.477a6.39 6.39 0 0 0-4.86-2.243z" transform="translate(19.822 23.154)" style="fill:#333a60"/>
        <path data-name="Path 142960" d="M12.657 5.022a.7.7 0 1 1 .871 1.106 21.977 21.977 0 0 0-7.983 12.857 6.395 6.395 0 0 1 9.637.651 31.153 31.153 0 0 1 1.352-7.393 19.849 19.849 0 0 1 7.69-10.637 22.03 22.03 0 0 0-8.092 2.757.7.7 0 0 1-.7-1.219A23.5 23.5 0 0 1 50.678 23.5a.7.7 0 1 1-1.408 0 5 5 0 0 0-9.99 0 .7.7 0 0 1-1.408 0 4.992 4.992 0 0 0-8.727-3.315c.108.162-4.007-.1-3.935 0a4.992 4.992 0 0 0-8.726 3.315.7.7 0 1 1-1.408 0 5 5 0 0 0-9.99 0 .7.7 0 1 1-1.408 0 23.38 23.38 0 0 1 8.979-18.478zM32.876 17.1a6.392 6.392 0 0 1 4.862 2.24 30.12 30.12 0 0 0-1.053-6 .7.7 0 1 1 1.352-.392 31.909 31.909 0 0 1 1.135 6.686 6.394 6.394 0 0 1 9.632-.657A22.149 22.149 0 0 0 30.127 1.6a19.312 19.312 0 0 1 6.723 8.117.7.7 0 1 1-1.282.581 17.908 17.908 0 0 0-7.686-8.431V19.5a6.391 6.391 0 0 1 4.994-2.4zm-11.4 0a6.4 6.4 0 0 1 5 2.4V1.866c-7.642 4.277-9.438 12.062-9.86 17.477a6.39 6.39 0 0 1 4.862-2.243z" transform="translate(19.822 23.154)" style="fill:#333a60"/>
        <path data-name="Path 142956" d="M345.77 275.09h-5.779a2.809 2.809 0 0 0-2.806 2.806v7.2a2.809 2.809 0 0 0 2.806 2.806h5.779a2.809 2.809 0 0 0 2.806-2.806v-7.2a2.809 2.809 0 0 0-2.806-2.806zm1.4 10.005a1.4 1.4 0 0 1-1.4 1.4h-5.779a1.4 1.4 0 0 1-1.4-1.4v-7.2a1.4 1.4 0 0 1 1.4-1.4h5.779a1.4 1.4 0 0 1 1.4 1.4z" transform="translate(-282.383 -226.116)" style="fill:#333a60"/>
        <path data-name="Path 142957" d="M369.53 314.809h2.719a.7.7 0 0 0 0-1.408h-2.719a.7.7 0 1 0 0 1.408z" transform="translate(-311.054 -260.832)" style="fill:#333a60"/>
        <path data-name="Path 142958" d="M373.515 343.9h-3.986a.7.7 0 0 0 0 1.408h3.986a.7.7 0 0 0 0-1.408z" transform="translate(-311.053 -288.467)" style="fill:#333a60"/>
        <path data-name="Path 142959" d="M134.568 457.869h-.628a2.2 2.2 0 0 0-.236-.574h.864a.544.544 0 0 0 0-1.088h-3.878a.544.544 0 0 0 0 1.088h1.11a1.152 1.152 0 0 1 .976.574h-2.084a.544.544 0 0 0 0 1.088h2.1a1.082 1.082 0 0 1-.986.574h-1.114a.55.55 0 0 0-.37.948l2.773 2.621a.537.537 0 0 0 .374.15h.015a.544.544 0 0 0 .382-.171.553.553 0 0 0-.023-.773l-1.795-1.7a2.2 2.2 0 0 0 1.9-1.648h.629a.544.544 0 1 0 0-1.088z" transform="translate(-100.389 -403.638)" style="fill:#333a60"/>
        <g data-name="Ellipse 2205" transform="translate(24.948 48.139)" style="stroke:#333a60;stroke-width:1.5px;fill:none">
            <circle cx="7.293" cy="7.293" r="7.293" style="stroke:none"/>
            <circle cx="7.293" cy="7.293" r="6.543" style="fill:none"/>
        </g>
    </g>
</svg>
