<svg xmlns="http://www.w3.org/2000/svg" width="94" height="94" viewBox="0 0 94 94">
    <g data-name="Rectangle 70181" style="fill:#fff;stroke:none;stroke-width:.5px">
        <rect width="94" height="94" rx="14" style="stroke:none"/>
        <rect x=".25" y=".25" width="93.5" height="93.5" rx="13.75" style="fill:none"/>
    </g>
    <g data-name="train" transform="translate(26.466 21.903)">
        <path data-name="Path 140438" d="m328.879 416 7.947 8.3h-6.806l-6.015-8.3z" transform="translate(-296.724 -375.397)" style="fill:#57555c"/>
        <path data-name="Path 140439" d="M111.173 16.687v28.646a3.882 3.882 0 0 1-3.9 3.862H79.957a3.882 3.882 0 0 1-3.9-3.862V16.679A5.809 5.809 0 0 1 80.76 11a52.628 52.628 0 0 1 10.2-1h5.154a53.7 53.7 0 0 1 10.346 1.006 5.852 5.852 0 0 1 3.385 2.005 5.746 5.746 0 0 1 1.328 3.676z" transform="translate(-73.075 -9.035)" style="fill:#f49d8d"/>
        <circle data-name="Ellipse 2120" cx="2.896" cy="2.896" r="2.896" transform="translate(28.374 29.84)" style="fill:#fed42d"/>
        <path data-name="Path 140440" d="M116.055 90v16.025h27.4V90z" transform="translate(-109.213 -81.196)" style="fill:#e3e3e3"/>
        <path data-name="Path 140441" d="m68.1 416-6.015 8.3h-6.9l8.044-8.3z" transform="translate(-54.22 -375.397)" style="fill:#57555c"/>
        <circle data-name="Ellipse 2121" cx="2.896" cy="2.896" r="2.896" transform="translate(6.914 29.84)" style="fill:#fed42d"/>
        <path data-name="Path 140442" d="M327.02 41.931a.965.965 0 1 0-.965-.965.966.966 0 0 0 .965.965z" transform="translate(-298.685 -36.138)" style="fill:#333a60"/>
        <path data-name="Path 140443" d="M167.02 41.931a.965.965 0 1 0-.965-.965.966.966 0 0 0 .965.965z" transform="translate(-154.277 -36.138)" style="fill:#333a60"/>
        <path data-name="Path 140444" d="M79.537 41.489a4.875 4.875 0 0 0 4.694-4.866V7.721a6.816 6.816 0 0 0-5.492-6.687A54.178 54.178 0 0 0 68.218 0h-5.145A53.023 53.023 0 0 0 52.7 1.027a6.837 6.837 0 0 0-5.481 6.686v28.91a4.875 4.875 0 0 0 4.76 4.867l-6.518 6.728a.974.974 0 0 0 .7 1.652h6.964a.974.974 0 0 0 .789-.4l2.955-4.078h17.8l2.955 4.078a.974.974 0 0 0 .789.4h6.867a.974.974 0 0 0 .7-1.648zm-30.372-4.866V7.713a4.884 4.884 0 0 1 3.915-4.776 51.086 51.086 0 0 1 9.993-.989h5.146a52.234 52.234 0 0 1 10.141 1 4.869 4.869 0 0 1 3.923 4.777v28.9a2.925 2.925 0 0 1-2.922 2.922H52.087a2.925 2.925 0 0 1-2.922-2.924zm3.46 11.3h-4.167l6.228-6.429h2.6zm5.652-4.481 1.411-1.948h12.157l1.411 1.948zm20.631 4.481-4.658-6.429h2.593L83 47.922z" transform="translate(-45.184)" style="fill:#333a60"/>
        <path data-name="Path 140445" d="M107.033 97.956H134.4a.972.972 0 0 0 .978-.965V80.965A.972.972 0 0 0 134.4 80h-27.367a.972.972 0 0 0-.978.965v16.026a.972.972 0 0 0 .978.965zm26.393-1.931H121.7V81.931h11.73zM108.01 81.931h11.73v14.094h-11.73z" transform="translate(-100.179 -72.168)" style="fill:#333a60"/>
        <path data-name="Path 140446" d="M207.02 41.931h7.723a.965.965 0 0 0 0-1.931h-7.723a.965.965 0 1 0 0 1.931z" transform="translate(-190.342 -36.138)" style="fill:#333a60"/>
        <path data-name="Path 140447" d="M329.917 296a3.862 3.862 0 1 0 3.862 3.862 3.866 3.866 0 0 0-3.862-3.862zm0 5.792a1.931 1.931 0 1 1 1.931-1.931 1.933 1.933 0 0 1-1.931 1.931z" transform="translate(-298.576 -267.121)" style="fill:#333a60"/>
        <path data-name="Path 140448" d="M109.917 303.723a3.862 3.862 0 1 0-3.862-3.862 3.866 3.866 0 0 0 3.862 3.862zm0-5.792a1.931 1.931 0 1 1-1.931 1.931 1.933 1.933 0 0 1 1.931-1.931z" transform="translate(-100.179 -267.121)" style="fill:#333a60"/>
        <path data-name="Path 140449" d="M214.743 306h-7.723a.965.965 0 1 0 0 1.931h7.723a.965.965 0 1 0 0-1.931z" transform="translate(-190.342 -276.184)" style="fill:#333a60"/>
        <path data-name="Path 140450" d="M214.743 346h-7.723a.965.965 0 1 0 0 1.931h7.723a.965.965 0 1 0 0-1.931z" transform="translate(-190.342 -312.286)" style="fill:#333a60"/>
    </g>
</svg>
