<svg xmlns="http://www.w3.org/2000/svg" width="50" height="50" viewBox="0 0 50 50">
  <defs>
    <style>
      .cls-1 {
        fill: #0000;
      }

      .cls-2 {
        fill: #e5f5fd;
      }

      .cls-3 {
        fill: #b9c8db;
      }

      .cls-4 {
        fill: #72bcef;
      }

      .cls-5 {
        fill: #67b5f4;
      }

      .cls-6 {
        fill: #50a6ea;
      }

      .cls-7 {
        fill: #333a60;
        stroke: #333a60;
        stroke-width: 0.2px;
      }
    </style>
  </defs>
  <g id="i_finddoctors" transform="translate(-173 -285)">
    <path id="Rectangle_27" data-name="Rectangle 27" class="cls-1" d="M0,0H50V50H0Z" transform="translate(173 285)"/>
    <g id="i_travelbookings" transform="translate(152.268 -64.459)">
      <g id="Flights" transform="translate(23 359)">
        <g id="daily-needs-icn">
          <g id="Group_14772" data-name="Group 14772" transform="translate(1.2 3.459)">
            <g id="flight_1_" data-name="flight (1)" transform="translate(0.532)">
              <path id="Path_13238" data-name="Path 13238" class="cls-2" d="M56.183,128.474a10.389,10.389,0,0,0-8.8.576l-19.53,10.28-4.622-3.416a5.217,5.217,0,0,0-5.169-.631L16,136.156l8.068,7a5.352,5.352,0,0,0,3.669,1.353,2.663,2.663,0,0,0,.984-.191l8.089-3.33.035.015.7-1.98,8.64-3.648L45.1,137.39l11.14-4.716a2.305,2.305,0,0,0-.054-4.2Z" transform="translate(-15.481 -127.208)"/>
              <path id="Path_13239" data-name="Path 13239" class="cls-3" d="M18.065,137.134a5.217,5.217,0,0,1,5.169.631l4.1,3.03a1.023,1.023,0,0,0,1.093.086l8.082-4.254,5.377-2.83,5.5-2.9a10.389,10.389,0,0,1,8.8-.576,2.114,2.114,0,0,1,1.2,1.187,2.427,2.427,0,0,0,.182-.926,2.211,2.211,0,0,0-1.382-2.113,10.389,10.389,0,0,0-8.8.576l-5.5,2.9-5.377,2.83-8.652,4.554-4.622-3.416a5.217,5.217,0,0,0-5.169-.631L16,136.156l1.434,1.245Z" transform="translate(-15.481 -127.208)"/>
              <path id="Path_13240" data-name="Path 13240" class="cls-4" d="M181.71,134.66l-5.377,2.83-7.253-5,2.678-1.741Z" transform="translate(-155.305 -129.922)"/>
              <path id="Path_13241" data-name="Path 13241" class="cls-5" d="M179.45,144.725l-9.158-4.164-1.212.833,7.253,5Z" transform="translate(-155.305 -138.823)"/>
              <path id="Path_13242" data-name="Path 13242" class="cls-6" d="M178.411,148l-8.552-4.442-.779.555,7.253,5Z" transform="translate(-155.305 -141.546)"/>
              <path id="Path_13243" data-name="Path 13243" class="cls-4" d="M226.894,210.051l-1.089,2.012-7.644,14.114h-4.32l3.713-10.5.7-1.98Z" transform="translate(-196.189 -201.88)"/>
              <path id="Path_13244" data-name="Path 13244" class="cls-5" d="M223.371,235.451l-3.117,1.3-.7,1.98-3.713,10.5h1.645Z" transform="translate(-198.016 -224.929)"/>
              <path id="Path_13245" data-name="Path 13245" class="cls-6" d="M221.812,242.451l-1.559.648-.7,1.98-3.713,10.5h.779Z" transform="translate(-198.016 -231.281)"/>
              <path id="Path_13246" data-name="Path 13246" class="cls-7" d="M50.882,122.537a10.909,10.909,0,0,0-9.2.6l-5.3,2.791L26.634,122.1a.49.49,0,0,0-.449.047l-2.678,1.741a.576.576,0,0,0-.012.941l6.481,4.466-7.555,3.977-4.372-3.231a5.7,5.7,0,0,0-5.655-.692l-2.066.874a.55.55,0,0,0-.322.432.576.576,0,0,0,.186.516l8.067,7a5.869,5.869,0,0,0,3.837,1.481l.175,0a3.153,3.153,0,0,0,1.154-.228l7.053-2.9-3.315,9.372a.588.588,0,0,0,.059.512.511.511,0,0,0,.427.24h4.32a.514.514,0,0,0,.45-.277l7.554-13.948,10.972-4.644a2.875,2.875,0,0,0-.067-5.239Zm-26.126,1.839,1.755-1.141,8.578,3.369-4.025,2.119Zm6.917,21.158H28.4l4.067-11.5,7.038-2.971Zm18.893-18.791-9.75,4.127.34-.628a.586.586,0,0,0-.056-.641.5.5,0,0,0-.585-.154l-8.641,3.648a.539.539,0,0,0-.3.32l-.606,1.713-7.924,3.263a2.191,2.191,0,0,1-.808.152,4.851,4.851,0,0,1-3.326-1.23l-7.378-6.4,1.24-.525a4.717,4.717,0,0,1,4.681.573l4.623,3.416a.491.491,0,0,0,.525.041l19.537-10.284a9.932,9.932,0,0,1,8.382-.549,1.736,1.736,0,0,1,.04,3.162Z" transform="translate(-10.001 -121.793)"/>
            </g>
          </g>
        </g>
      </g>
    </g>
  </g>
</svg>
