<svg xmlns="http://www.w3.org/2000/svg" width="94" height="94" viewBox="0 0 94 94">
    <g data-name="Rectangle 70173" style="fill:#fff;stroke:none;stroke-width:.5px">
        <rect width="94" height="94" rx="14" style="stroke:none"/>
        <rect x=".25" y=".25" width="93.5" height="93.5" rx="13.75" style="fill:none"/>
    </g>
    <path data-name="Path 140355" d="M24.9 3a3.724 3.724 0 0 0-2.634 1.092l-10.36 10.359a3.728 3.728 0 0 0-1.091 2.635v25.4a3.725 3.725 0 0 0 3.726 3.726h24.122a3.725 3.725 0 0 0 3.726-3.726V6.728A3.726 3.726 0 0 0 38.663 3H24.9z" transform="translate(19.214 22.146)" style="fill-rule:evenodd;fill:#eaeffe"/>
    <path data-name="Path 140356" d="M24.877 3a.89.89 0 0 1 .166.664l-1.451 9.784a4.475 4.475 0 0 1-3.783 3.773l-8.994 1.308v-1.443a3.728 3.728 0 0 1 1.091-2.635L22.264 4.094A3.726 3.726 0 0 1 24.877 3z" transform="translate(19.214 22.146)" style="fill:#dae2fc;fill-rule:evenodd"/>
    <path data-name="Path 140357" d="M31.885 16.153a1.922 1.922 0 0 0-3.526.007c-1.434 3.125-3.722 8.63-3.722 11.492a5.493 5.493 0 0 0 10.974 0c0-2.862-2.288-8.368-3.725-11.5z" transform="translate(15.692 19.089)" style="fill:#4fb1fe;fill-rule:evenodd"/>
    <path data-name="Path 140358" d="M24.823 28.782a.746.746 0 0 0 .411.8l.127.063a5.826 5.826 0 0 0 5.306 0 5.229 5.229 0 0 1 .548-.244.745.745 0 0 0 .258-1.231 17.62 17.62 0 0 0-1.947-1.682 7.159 7.159 0 0 0-3.093-1.245.745.745 0 0 0-.826.507 22.672 22.672 0 0 0-.784 3.032z" transform="translate(15.647 16.483)" style="fill:#2272b0;fill-rule:evenodd"/>
    <path data-name="Path 140359" d="M20.709 45.49h16.448a.745.745 0 0 0 0-1.49H20.709a.745.745 0 0 0 0 1.49z" transform="translate(16.883 11.699)" style="fill:#5b5b81;fill-rule:evenodd"/>
    <path data-name="Path 140360" d="M27.152 3.528a4.29 4.29 0 0 1 .632 2.1c0 1.838-.956 3.331-.5 3.331h19.268V6.728A3.726 3.726 0 0 0 42.826 3H29.061a3.731 3.731 0 0 0-1.909.526z" transform="translate(15.051 22.146)" style="fill:#1b8ce5;fill-rule:evenodd"/>
    <path data-name="Path 140361" d="M28.054 3.141A3.737 3.737 0 0 1 29.04 3a.89.89 0 0 1 .166.664l-.785 5.3h-1.138c-.455 0 .5-1.493.5-3.331a4.29 4.29 0 0 0-.632-2.1l.028-.016.029-.017.027-.015.025-.014.031-.017.025-.013.03-.016.028-.014.025-.013.025-.012.034-.016.024-.011.025-.012.035-.016.023-.01.025-.021.036-.015.023-.01.025-.01h.013l.022-.009.025-.01.025-.01h.013l.022-.008.025-.009.022-.008.016-.005.023-.007.024-.008.017-.005.022-.007.024-.007.022-.007.019-.006.022-.006z" transform="translate(15.051 22.146)" style="fill:#207fc9;fill-rule:evenodd"/>
    <path data-name="Path 140362" d="M20.709 51.99h16.448a.745.745 0 0 0 0-1.49H20.709a.745.745 0 0 0 0 1.49z" transform="translate(16.883 10.043)" style="fill:#5b5b81;fill-rule:evenodd"/>
    <path data-name="Path 140363" d="M23.707 3.3a.555.555 0 0 0 .144.053h.019a.746.746 0 0 1 .61.844l-1.208 8.145a3.727 3.727 0 0 1-3.15 3.141l-8.108 1.179a.745.745 0 0 1-.845-.63v-.019a.515.515 0 0 0-.046-.133 3.729 3.729 0 0 1 .864-1.356L22.342 4.17a3.716 3.716 0 0 1 1.365-.87z" transform="translate(19.137 22.07)" style="fill:#4fb1fe;fill-rule:evenodd"/>
    <path data-name="Path 140364" d="M25.838 29.039a.745.745 0 0 0-1.059.545 8.888 8.888 0 0 0-.142 1.476 5.493 5.493 0 0 0 10.974 0 9.688 9.688 0 0 0-.209-1.839.745.745 0 0 0-.519-.57 6.67 6.67 0 0 0-4.941.467 4.336 4.336 0 0 1-3.947 0l-.157-.078z" transform="translate(15.692 15.68)" style="fill:#1b8ce5;fill-rule:evenodd"/>
    <g data-name="Group 128600">
        <path data-name="Path 140365" d="M31.885 16.153a1.922 1.922 0 0 0-3.526.007c-1.434 3.125-3.722 8.63-3.722 11.492a5.493 5.493 0 0 0 10.974 0c0-2.862-2.288-8.368-3.725-11.5zm-1.364.6.007.016c1.362 2.967 3.593 8.17 3.593 10.884a4.005 4.005 0 0 1-7.993 0c0-2.715 2.23-7.917 3.592-10.884a.149.149 0 0 0 .007-.016.432.432 0 0 1 .794 0z" transform="translate(15.692 19.089)" style="fill:#3d4060;fill-rule:evenodd"/>
        <path data-name="Path 140366" d="M25.838 29.039a.745.745 0 0 0-1.059.545 8.888 8.888 0 0 0-.142 1.476 5.493 5.493 0 0 0 10.974 0 9.688 9.688 0 0 0-.209-1.839.745.745 0 0 0-.519-.57 6.67 6.67 0 0 0-4.941.467 4.336 4.336 0 0 1-3.947 0l-.157-.078zm.3 1.748a5.828 5.828 0 0 0 4.488-.344 5.184 5.184 0 0 1 3.4-.47 6.976 6.976 0 0 1 .1 1.089 4.005 4.005 0 0 1-7.993 0c0-.089 0-.18.007-.273z" transform="translate(15.692 15.68)" style="fill:#3d4060;fill-rule:evenodd"/>
        <path data-name="Path 140367" d="M24.823 28.782a.746.746 0 0 0 .411.8l.127.063a5.826 5.826 0 0 0 5.306 0 5.229 5.229 0 0 1 .548-.244.745.745 0 0 0 .258-1.231 17.62 17.62 0 0 0-1.947-1.682 7.159 7.159 0 0 0-3.093-1.245.745.745 0 0 0-.826.507 22.672 22.672 0 0 0-.784 3.032zm4.806-.3a4.338 4.338 0 0 1-3.229 0c.111-.517.257-1.068.428-1.638a5.464 5.464 0 0 1 1.827.85 12.2 12.2 0 0 1 .974.785z" transform="translate(15.647 16.483)" style="fill:#3d4060;fill-rule:evenodd"/>
        <path data-name="Path 140368" d="M24.9 3a3.724 3.724 0 0 0-2.634 1.092l-10.36 10.359a3.728 3.728 0 0 0-1.091 2.635v25.4a3.725 3.725 0 0 0 3.726 3.726h24.122a3.725 3.725 0 0 0 3.726-3.726V6.728A3.726 3.726 0 0 0 38.663 3H24.9zm0 1.49h13.763A2.236 2.236 0 0 1 40.9 6.728v35.761a2.236 2.236 0 0 1-2.236 2.236H14.541a2.236 2.236 0 0 1-2.236-2.236v-25.4a2.236 2.236 0 0 1 .655-1.589L23.318 5.147a2.234 2.234 0 0 1 1.582-.655z" transform="translate(19.214 22.146)" style="fill:#3d4060;fill-rule:evenodd"/>
        <path data-name="Path 140369" d="m23.018 4-1.208 8.142a2.236 2.236 0 0 1-1.89 1.885l-8.108 1.179a.745.745 0 1 0 .215 1.475l8.108-1.181a3.727 3.727 0 0 0 3.15-3.141l1.208-8.145A.745.745 0 0 0 23.018 4z" transform="translate(19.123 22.055)" style="fill:#3d4060;fill-rule:evenodd"/>
        <path data-name="Path 140370" d="M20.709 45.49h16.448a.745.745 0 0 0 0-1.49H20.709a.745.745 0 0 0 0 1.49z" transform="translate(16.883 11.699)" style="fill:#3d4060;fill-rule:evenodd"/>
        <path data-name="Path 140371" d="M26.966 10.49h18.6a.745.745 0 1 0 0-1.49h-18.6a.745.745 0 1 0 0 1.49z" transform="translate(15.288 20.618)" style="fill:#3d4060;fill-rule:evenodd"/>
        <path data-name="Path 140372" d="M20.709 51.99h16.448a.745.745 0 0 0 0-1.49H20.709a.745.745 0 0 0 0 1.49z" transform="translate(16.883 10.043)" style="fill:#3d4060;fill-rule:evenodd"/>
    </g>
</svg>
